<svg xmlns="http://www.w3.org/2000/svg" xmlns:xlink="http://www.w3.org/1999/xlink" version="1.1" width="1000" height="1000" viewBox="0 0 1000 1000" xml:space="preserve">
<desc>Created with Fabric.js 3.5.0</desc>
<defs>
</defs>
<rect x="0" y="0" width="100%" height="100%" fill="#ffffff"/>
<g transform="matrix(0.8013 0 0 0.8013 500.009 500.0112)" id="603386">
<g style="" vector-effect="non-scaling-stroke">
		<g transform="matrix(1 0 0 1 -450 -574)" id="backgroundrect">
<rect style="stroke: none; stroke-width: 1; stroke-dasharray: none; stroke-linecap: butt; stroke-dashoffset: 0; stroke-linejoin: miter; stroke-miterlimit: 4; is-custom-font: none; font-file-url: none; fill: none; fill-rule: nonzero; opacity: 1;" x="-50" y="-50" rx="0" ry="0" width="100" height="100"/>
</g>
		<g transform="matrix(0.1 0 0 -0.1 19.8988 -243.2632)" id="svg_2">
<path style="stroke: none; stroke-width: 1; stroke-dasharray: none; stroke-linecap: butt; stroke-dashoffset: 0; stroke-linejoin: miter; stroke-miterlimit: 4; is-custom-font: none; font-file-url: none; fill: rgb(43,41,40); fill-opacity: 0.94; fill-rule: nonzero; opacity: 1;" transform=" translate(-5198.9886, -8672.6323)" d="M 4753 12417.940673828125 c -114 -32 -149 -60 -214 -175 l -42 -74 l 19 -76 l 19 -75 l 74 -49 l 73 -49 l 80 12 c 44 7 81 11 83 9 c 12 -12 34 -350 32 -478 l -3 -155 l -60 3 c -69 3 -160 29 -297 84 l -99 40 l -71 -12 c -40 -7 -119 -25 -177 -41 c -58 -15 -157 -40 -220 -53 c -63 -14 -174 -48 -246 -75 c -72 -28 -171 -59 -220 -70 c -100 -23 -232 -64 -272 -86 c -55 -29 -54 -25 -36 -116 c 13 -70 15 -120 9 -294 c -10 -300 -10 -308 3 -535 c 6 -113 12 -365 12 -561 l 0 -356 l 98 -5 c 106 -5 142 -18 203 -73 c 35 -32 105 -55 163 -55 c 36 0 132 -34 232 -81 c 81 -39 93 -48 104 -79 c 7 -19 19 -43 28 -52 c 25 -29 325 -141 504 -188 l 47 -12 l 3 -141 l 3 -141 l 55 -33 c 109 -65 205 -95 315 -100 c 124 -5 184 10 204 51 c 13 29 11 47 -18 161 c -5 22 -9 40 -8 41 c 1 1 31 -5 66 -12 c 35 -7 125 -42 200 -77 c 75 -35 152 -70 171 -77 c 19 -8 66 -29 105 -48 l 70 -35 l 83 28 c 96 32 129 30 212 -13 c 30 -16 98 -51 150 -78 c 52 -27 165 -76 250 -108 c 210 -80 263 -107 290 -151 c 12 -20 20 -38 17 -41 c -3 -3 -38 -12 -79 -20 c -137 -28 -213 -55 -388 -139 c -96 -46 -195 -88 -218 -94 c -39 -8 -48 -7 -80 16 c -57 38 -124 71 -251 120 c -64 25 -156 64 -206 87 c -86 41 -193 83 -355 141 c -176 63 -271 100 -357 142 c -50 24 -147 62 -215 84 c -67 23 -165 63 -218 90 c -60 31 -128 57 -185 71 c -50 11 -100 30 -112 41 c -12 10 -42 22 -67 24 l -46 6 l 0 -42 l 0 -41 l 65 0 c 75 0 132 -21 350 -125 c 77 -37 182 -82 232 -101 c 51 -18 114 -44 141 -58 c 60 -31 278 -120 452 -184 c 137 -52 277 -107 340 -136 c 34 -16 33 -16 -70 -13 c -96 3 -117 7 -235 49 c -71 26 -184 63 -250 82 c -206 61 -244 75 -472 172 c -122 52 -232 98 -245 103 c -13 5 -66 30 -118 55 c -52 26 -119 54 -150 63 c -30 9 -93 34 -140 57 c -47 23 -116 55 -155 71 c -38 16 -115 50 -170 76 c -56 26 -119 52 -140 58 c -48 13 -115 14 -115 2 c 0 -14 83 -86 133 -115 c 25 -15 113 -55 194 -88 c 81 -33 240 -103 353 -155 c 305 -142 373 -171 508 -219 c 67 -24 136 -51 153 -59 c 59 -31 636 -217 809 -261 c 219 -56 307 -72 442 -80 l 107 -7 l 11 -51 c 25 -117 39 -197 51 -297 l 12 -106 l 46 5 c 25 2 47 6 49 7 c 2 2 -1 34 -7 71 c -5 38 -17 119 -26 179 l -16 110 l 23 19 c 32 26 145 79 263 122 c 55 20 161 59 235 86 c 180 67 348 124 387 132 c 31 7 32 7 37 -36 c 31 -251 33 -442 5 -508 l -15 -34 l -76 94 c -109 136 -152 172 -229 189 c -52 12 -80 2 -195 -71 l -81 -51 l -37 -95 c -46 -115 -65 -187 -73 -268 c -7 -75 2 -103 70 -216 c 52 -87 52 -88 93 -88 c 46 0 125 -25 227 -72 l 69 -32 l 29 35 c 16 18 65 107 110 195 c 45 89 92 174 105 190 l 23 29 l 0 -85 c 0 -47 -4 -119 -9 -160 c -5 -41 -15 -187 -21 -325 c -6 -137 -13 -272 -14 -300 c -2 -27 -4 -284 -6 -571 l -4 -521 l 30 -39 c 23 -30 31 -53 35 -98 c 4 -53 9 -62 41 -88 c 29 -23 41 -27 69 -22 l 33 7 l -7 321 c -4 222 -14 394 -30 556 c -31 301 -35 813 -10 1024 c 12 94 14 156 8 221 c -4 50 -8 180 -9 290 c -4 412 -15 680 -28 680 c -7 0 -45 -6 -85 -14 c -88 -16 -94 -14 -264 80 c -70 39 -185 92 -255 119 c -71 26 -155 60 -188 75 c -163 75 -165 76 -165 100 c 0 19 14 29 93 63 c 50 22 117 50 147 62 c 30 12 98 46 150 75 c 103 57 183 95 245 114 c 26 9 59 33 93 69 l 53 57 l -5 115 c -3 63 -12 165 -21 225 c -26 187 -34 318 -39 655 c -3 179 -10 352 -17 385 c -9 51 -18 145 -19 208 c 0 18 -34 57 -49 57 c -21 0 -34 -193 -38 -576 c -4 -332 -2 -418 11 -507 c 21 -140 21 -316 1 -343 c -21 -28 -18 -66 9 -129 c 29 -64 41 -51 -109 -116 c -55 -23 -160 -74 -233 -111 c -73 -38 -172 -84 -220 -103 c -113 -43 -359 -111 -369 -101 c -3 2 7 66 22 142 c 18 93 24 149 19 173 c -4 20 -6 151 -5 291 c 0 140 -3 289 -8 330 c -5 41 -17 170 -25 285 c -9 116 -21 258 -27 316 c -8 72 -8 112 -1 125 c 10 19 99 60 327 151 c 192 76 342 130 513 183 c 73 23 74 23 68 53 c -3 16 -6 33 -6 37 c 0 9 -116 62 -216 99 c -81 29 -101 38 -269 123 c -122 62 -257 110 -395 143 c -224 53 -416 104 -470 127 c -125 51 -265 155 -288 215 c -7 17 -13 142 -16 308 c -2 154 -7 294 -11 310 c -6 28 -2 33 52 68 c 113 73 110 68 118 189 c 7 105 6 107 -17 119 c -12 6 -59 35 -103 63 c -62 40 -100 57 -170 74 c -127 31 -163 34 -222 17 z m 202 -139 c 88 -23 143 -53 165 -88 c 26 -43 26 -90 -1 -114 c -19 -17 -39 -19 -240 -19 l -220 -1 l -4 23 c -3 13 -7 35 -10 49 c -13 60 31 121 109 151 c 42 16 140 16 201 -1 z m -435 -1003 c 47 -19 100 -40 118 -46 c 17 -6 32 -16 32 -24 c 0 -7 -13 -39 -30 -70 c -43 -81 -40 -99 28 -165 c 81 -79 165 -144 225 -175 c 48 -25 62 -27 205 -31 l 152 -4 l 41 88 c 23 49 42 90 43 91 c 1 1 31 -7 66 -18 c 36 -11 139 -36 230 -55 c 341 -72 399 -89 585 -178 c 114 -55 215 -123 215 -145 c 0 -4 -26 -15 -57 -25 c -32 -10 -130 -51 -218 -91 c -88 -40 -177 -80 -197 -88 c -20 -9 -44 -28 -52 -44 c -8 -15 -19 -34 -24 -40 c -6 -10 -87 25 -308 131 c -299 143 -328 154 -689 265 c -71 21 -256 78 -410 126 c -154 48 -336 102 -405 121 c -69 18 -145 40 -170 49 c -75 27 -272 75 -306 75 c -18 0 -39 3 -48 6 c -14 6 -14 9 1 35 c 9 15 28 33 42 38 c 50 19 157 52 301 91 c 80 22 217 60 305 85 c 184 51 197 51 325 -2 z m 355 -173 c 33 -34 46 -40 80 -40 c 50 0 156 -25 195 -45 c 26 -13 30 -21 30 -55 l 0 -39 l -57 -12 c -85 -18 -172 -16 -213 6 c -19 10 -68 40 -107 68 c -67 45 -73 53 -73 84 c 0 30 4 36 43 53 c 23 10 47 19 52 19 c 6 1 29 -17 50 -39 z m -1411 -99 c 27 -30 92 -57 181 -76 c 133 -28 480 -132 730 -218 c 164 -57 269 -91 530 -171 c 285 -89 361 -118 595 -231 c 129 -62 242 -115 250 -117 c 13 -4 15 -42 15 -264 c 1 -142 6 -317 13 -389 c 16 -181 19 -854 4 -924 c -9 -42 -9 -68 0 -112 c 10 -50 10 -60 -6 -84 c -15 -23 -23 -26 -49 -21 c -47 9 -327 170 -327 188 c 0 5 37 47 81 93 l 82 85 l -5 63 c -11 131 -120 299 -309 478 l -134 126 l -164 72 c -270 119 -419 161 -571 161 c -41 0 -134 7 -207 15 c -73 8 -145 12 -160 10 c -15 -3 -97 -9 -181 -14 c -149 -9 -155 -10 -278 -58 l -125 -48 l 6 -55 c 3 -30 11 -81 17 -113 c 6 -34 7 -62 2 -67 c -5 -4 -29 -11 -54 -15 c -36 -5 -50 -3 -68 12 c -22 17 -22 20 -11 98 c 13 94 6 276 -17 450 c -13 93 -18 236 -21 633 l -5 512 l 85 0 c 70 0 87 -3 101 -19 z m 698 -1441 c 165 -16 158 -13 158 -61 l 0 -41 l -107 4 c -91 3 -117 8 -165 30 c -53 25 -58 30 -58 59 c 0 30 2 31 29 26 c 16 -4 81 -11 143 -17 z m -258 -12 c 3 -13 6 -39 6 -59 c 0 -35 -1 -36 -51 -47 c -100 -23 -138 -8 -158 65 c -18 65 -21 63 93 63 c 99 0 104 -1 110 -22 z m 706 -46 l 115 -48 l 3 -47 l 3 -47 l -33 7 c -18 3 -78 20 -133 38 c -99 30 -100 31 -103 64 c -4 44 5 81 21 81 c 6 0 64 -22 127 -48 z m -1025 2 c 22 -14 25 -24 25 -75 c 0 -55 -1 -59 -24 -59 c -16 0 -26 7 -30 23 c -7 27 -8 127 -1 127 c 3 0 17 -7 30 -16 z m 1332 -119 c 72 -27 153 -71 165 -89 c 4 -6 8 -21 8 -34 c 0 -22 -3 -23 -47 -16 c -121 17 -213 82 -213 149 c 0 20 8 19 87 -10 z m -584 -42 c 3 -5 8 -28 12 -52 l 7 -44 l -88 5 c -111 7 -164 27 -164 62 c 0 22 5 25 43 29 c 81 7 186 7 190 0 z m -373 -28 c 7 -14 11 -26 9 -28 c -33 -22 -108 -47 -138 -47 c -63 0 -71 7 -71 56 l 0 44 l 93 0 c 90 0 94 -1 107 -25 z m 605 -15 c 53 -11 100 -20 102 -20 c 6 0 -2 -89 -8 -94 c -7 -5 -174 16 -180 22 c -8 8 -23 112 -16 112 c 3 0 49 -9 102 -20 z m 334 -108 c 4 -7 13 -42 20 -77 c 7 -36 16 -67 20 -70 c 4 -2 36 5 72 15 c 35 11 67 16 71 12 c 4 -4 16 -28 27 -54 l 20 -47 l -47 -36 c -26 -19 -51 -35 -57 -35 c -5 1 -67 43 -136 95 c -133 98 -139 107 -139 187 l 0 30 l 71 -4 c 41 -2 73 -9 78 -16 z m 361 -78 c 0 -45 -1 -46 -27 -39 c -16 3 -46 24 -68 46 l -40 39 l 68 0 l 67 0 l 0 -46 z m -885 -8 c 150 -30 236 -64 345 -138 c 85 -57 209 -158 194 -158 c -4 0 -89 32 -188 71 c -206 81 -312 115 -476 154 c -155 36 -300 78 -300 88 c 0 4 69 7 153 7 c 119 0 178 -6 272 -24 z m 971 -133 c 86 -42 109 -112 58 -172 c -14 -17 -29 -31 -33 -31 c -4 0 -16 28 -26 63 c -11 34 -29 86 -42 115 c -12 28 -20 52 -17 52 c 3 0 30 -12 60 -27 z m -97 -178 c 18 -57 35 -121 38 -140 l 6 -36 l -109 62 c -60 34 -113 65 -117 69 c -9 8 126 150 142 150 c 4 0 22 -47 40 -105 z m -377 -127 c 74 -39 103 -74 117 -138 c 16 -72 14 -94 -9 -115 c -24 -21 -91 -15 -175 16 c -121 45 -133 85 -58 198 c 26 39 51 71 56 71 c 5 0 36 -14 69 -32 z m 1875 -1229 c 47 -23 103 -82 136 -144 c 34 -63 28 -163 -16 -295 l -35 -105 l -84 0 c -45 0 -108 4 -138 8 l -55 8 l -44 72 l -45 71 l 27 104 c 35 133 69 205 123 259 c 49 49 69 52 131 22 z" stroke-linecap="round"/>
</g>
		<g transform="matrix(0.1 0 0 -0.1 -138.75 -416.8569)" id="svg_3">
<path style="stroke: none; stroke-width: 1; stroke-dasharray: none; stroke-linecap: butt; stroke-dashoffset: 0; stroke-linejoin: miter; stroke-miterlimit: 4; is-custom-font: none; font-file-url: none; fill: rgb(43,41,40); fill-opacity: 0.94; fill-rule: nonzero; opacity: 1;" transform=" translate(-3612.5, -10408.5688)" d="M 3694 10591.940673828125 c -27 -17 -97 -78 -155 -136 l -106 -105 l 16 -76 c 16 -71 19 -77 44 -80 c 43 -5 64 14 102 94 c 36 74 114 167 174 207 l 23 16 l -17 55 c -10 31 -21 56 -24 56 c -4 0 -29 -14 -57 -31 z" stroke-linecap="round"/>
</g>
		<g transform="matrix(0.1 0 0 -0.1 -112.1536 -380.6526)" id="svg_4">
<path style="stroke: none; stroke-width: 1; stroke-dasharray: none; stroke-linecap: butt; stroke-dashoffset: 0; stroke-linejoin: miter; stroke-miterlimit: 4; is-custom-font: none; font-file-url: none; fill: rgb(43,41,40); fill-opacity: 0.94; fill-rule: nonzero; opacity: 1;" transform=" translate(-3878.4645, -10046.5258)" d="M 3850 10201.940673828125 c -115 -51 -155 -113 -153 -233 c 1 -43 5 -82 10 -87 c 8 -8 201 -15 207 -8 c 2 2 35 46 75 97 l 71 94 l -27 51 c -46 92 -60 107 -101 106 c -20 0 -57 -9 -82 -20 z" stroke-linecap="round"/>
</g>
		<g transform="matrix(0.1 0 0 -0.1 40.6 -369.8622)" id="svg_5">
<path style="stroke: none; stroke-width: 1; stroke-dasharray: none; stroke-linecap: butt; stroke-dashoffset: 0; stroke-linejoin: miter; stroke-miterlimit: 4; is-custom-font: none; font-file-url: none; fill: rgb(43,41,40); fill-opacity: 0.94; fill-rule: nonzero; opacity: 1;" transform=" translate(-5406, -9938.6211)" d="M 5238 10128.940673828125 l -25 -43 l 87 -80 c 74 -69 94 -96 140 -182 c 33 -64 58 -101 69 -101 c 9 0 33 -3 53 -6 l 37 -6 l -5 38 c -9 61 -66 173 -121 239 c -41 50 -160 156 -198 178 c -6 3 -23 -13 -37 -37 z" stroke-linecap="round"/>
</g>
		<g transform="matrix(0.1 0 0 -0.1 8.1672 -346.4956)" id="svg_6">
<path style="stroke: none; stroke-width: 1; stroke-dasharray: none; stroke-linecap: butt; stroke-dashoffset: 0; stroke-linejoin: miter; stroke-miterlimit: 4; is-custom-font: none; font-file-url: none; fill: rgb(43,41,40); fill-opacity: 0.94; fill-rule: nonzero; opacity: 1;" transform=" translate(-5081.6727, -9704.9564)" d="M 5061 9831.940673828125 c -94 -18 -159 -88 -146 -157 c 16 -85 43 -106 136 -107 c 57 0 98 29 157 113 l 42 61 l -60 50 c -34 28 -66 51 -73 50 c -7 -1 -32 -5 -56 -10 z" stroke-linecap="round"/>
</g>
		<g transform="matrix(0.1 0 0 -0.1 -176.9 -94.8505)" id="svg_7">
<path style="stroke: none; stroke-width: 1; stroke-dasharray: none; stroke-linecap: butt; stroke-dashoffset: 0; stroke-linejoin: miter; stroke-miterlimit: 4; is-custom-font: none; font-file-url: none; fill: rgb(43,41,40); fill-opacity: 0.94; fill-rule: nonzero; opacity: 1;" transform=" translate(-3231, -7188.5052)" d="M 2170 10082.940673828125 c -59 -9 -166 -47 -210 -75 c -100 -63 -201 -217 -225 -340 c -23 -121 -35 -168 -47 -183 c -18 -21 -77 -47 -151 -67 l -68 -18 l -62 61 c -81 80 -112 92 -236 92 l -100 0 l -32 -45 l -32 -44 l -71 -3 l -71 -3 l -19 -60 c -11 -33 -21 -62 -23 -64 c -1 -2 -25 6 -52 18 c -83 35 -101 30 -168 -45 c -90 -102 -107 -141 -111 -257 l -4 -98 l -79 -40 c -44 -22 -143 -80 -219 -130 c -160 -104 -180 -130 -180 -235 c 0 -77 29 -128 94 -169 c 45 -27 57 -30 135 -30 c 103 0 78 -11 442 188 l 86 47 l 50 -58 c 43 -49 58 -60 104 -71 c 69 -17 86 -33 94 -84 c 27 -173 52 -249 129 -394 c 65 -122 121 -192 195 -241 c 88 -59 112 -67 481 -163 c 19 -5 143 -12 275 -15 c 312 -7 378 5 590 104 l 100 47 l 146 3 l 146 4 l 7 -269 c 3 -147 8 -286 11 -308 c 3 -22 5 -202 5 -400 c 0 -343 8 -537 30 -725 c 5 -47 12 -166 14 -265 c 2 -99 7 -189 11 -201 c 5 -16 20 -23 68 -32 c 34 -6 95 -28 136 -48 c 85 -41 155 -69 319 -123 c 64 -22 149 -54 187 -71 c 39 -18 137 -52 220 -77 c 82 -24 201 -68 265 -98 c 63 -29 153 -68 200 -87 c 159 -65 382 -132 580 -174 c 41 -8 109 -33 150 -54 c 41 -21 113 -57 160 -79 c 47 -22 132 -65 190 -95 c 58 -30 130 -62 160 -71 c 30 -9 93 -34 139 -57 c 107 -51 230 -98 395 -153 l 128 -42 l -4 54 c -6 75 -30 101 -124 142 c -94 39 -344 129 -379 135 c -51 9 -71 19 -105 51 c -19 19 -58 42 -85 53 c -28 11 -86 36 -130 57 c -312 144 -438 194 -670 265 c -33 10 -98 30 -145 45 c -47 14 -105 30 -130 35 c -25 5 -85 27 -135 51 c -134 62 -292 118 -450 160 c -27 7 -122 43 -210 80 c -221 92 -307 119 -397 126 l -78 6 l -73 63 l -74 64 l -14 138 c -10 102 -14 298 -14 762 l 0 625 l 35 -3 c 45 -5 153 -49 260 -105 c 96 -51 239 -103 250 -90 c 19 21 29 80 20 118 c -5 22 -10 69 -10 105 c 0 70 19 220 30 233 c 3 4 61 -20 127 -53 c 234 -116 500 -215 713 -265 c 63 -14 126 -30 140 -35 c 14 -4 54 -15 90 -25 c 145 -38 259 -77 264 -91 c 3 -7 8 -85 11 -171 c 6 -179 13 -254 23 -269 c 4 -5 49 -16 101 -23 c 52 -7 123 -24 158 -37 c 61 -23 173 -34 173 -16 c 0 4 -16 33 -35 64 c -35 56 -36 56 -133 88 c -124 41 -151 55 -156 83 c -6 28 -13 116 -22 278 l -7 126 l -66 12 c -68 13 -249 54 -311 71 c -100 26 -165 45 -260 74 c -58 18 -130 38 -160 45 c -129 29 -323 104 -615 237 c -38 17 -92 20 -127 6 l -28 -12 l 0 -205 c 0 -155 -3 -205 -12 -205 c -12 0 -50 14 -223 78 c -111 41 -168 74 -186 107 c -11 20 -23 84 -34 190 c -9 88 -20 184 -25 214 c -6 30 -15 150 -20 265 c -11 222 -15 293 -30 471 c -15 174 -15 182 18 190 c 35 9 191 32 268 40 c 80 8 136 22 288 70 c 43 14 91 25 105 25 c 45 0 63 20 59 65 l -3 40 l -67 3 c -52 2 -102 -6 -209 -33 c -103 -26 -163 -35 -221 -35 c -45 0 -99 -5 -122 -11 c -22 -6 -63 -16 -91 -24 c -27 -7 -74 -17 -104 -20 l -53 -7 l 6 -82 c 4 -44 11 -97 16 -116 c 4 -19 11 -196 15 -392 l 7 -358 l -54 0 c -101 0 -167 19 -209 61 c -42 42 -150 248 -175 334 l -15 55 l 33 67 c 39 80 161 212 242 263 c 31 19 56 38 56 41 c 0 10 -40 19 -81 19 c -85 0 -231 -135 -313 -289 l -47 -91 l 11 -58 c 22 -110 32 -147 40 -157 c 4 -5 42 -66 84 -135 c 85 -139 85 -137 -5 -139 c -20 -1 -42 -8 -49 -17 c -23 -27 -96 -64 -167 -84 c -58 -17 -100 -20 -285 -20 c -168 0 -218 3 -218 13 c 0 6 12 67 27 135 l 28 122 l 56 0 c 122 0 137 -13 148 -126 c 4 -40 9 -75 11 -78 c 3 -2 22 -7 43 -11 l 37 -7 l 0 118 c 0 64 2 115 5 112 c 3 -3 34 1 68 8 c 34 7 76 13 94 14 c 29 0 33 -3 38 -37 c 10 -58 27 -85 64 -100 c 18 -8 36 -12 39 -9 c 6 6 -18 102 -53 211 c -26 82 -31 84 -138 60 c -51 -12 -118 -17 -227 -17 c -176 0 -185 2 -338 94 c -101 60 -138 107 -188 234 l -37 94 l -52 0 l -52 0 l -6 -70 c -3 -39 -9 -75 -13 -81 c -13 -21 -174 -90 -224 -96 c -63 -7 -92 10 -109 67 c -7 23 -15 48 -17 55 c -4 9 12 17 53 25 c 87 17 120 28 211 73 c 108 53 112 59 83 110 l -24 41 l 34 26 c 93 70 116 98 133 165 c 9 35 16 77 16 92 c 0 43 24 66 81 77 c 13 2 50 11 82 20 l 58 15 l 52 -40 c 97 -77 141 -94 242 -94 c 115 0 240 22 285 51 c 19 12 70 51 112 86 c 42 34 102 83 132 108 l 56 45 l -5 49 c -8 65 -45 155 -90 217 c -58 78 -61 78 -164 8 c -96 -66 -117 -72 -221 -54 l -40 7 l 0 56 c 0 81 13 117 65 177 c 43 50 45 56 45 114 c 0 40 -4 61 -12 61 c -22 0 -109 -63 -149 -109 c -73 -82 -107 -175 -94 -258 c 6 -42 16 -56 90 -130 c 76 -77 85 -83 123 -83 c 47 0 150 23 236 51 c 32 11 61 18 64 14 c 10 -10 -43 -110 -83 -154 c -82 -90 -160 -120 -305 -116 c -52 1 -103 3 -113 3 c -10 1 -37 33 -63 75 c -26 39 -48 74 -50 76 c -2 2 -41 -6 -86 -18 c -189 -50 -352 -91 -359 -91 c -10 0 -43 184 -36 202 c 3 8 29 23 59 32 c 197 64 328 138 328 188 c 0 10 -10 42 -21 69 c -19 44 -20 55 -10 92 c 27 91 85 180 158 241 c 17 14 78 43 136 62 l 105 37 l 29 -21 c 41 -29 90 -125 105 -206 l 13 -68 l 40 6 c 47 7 85 45 85 83 c 0 34 -86 195 -133 249 c -30 34 -48 45 -88 53 c -54 12 -61 12 -129 1 z m -873 -668 c 17 -26 38 -60 46 -77 c 20 -41 69 -197 63 -202 c -3 -3 -25 3 -51 12 c -45 18 -46 18 -93 -8 c -51 -28 -167 -56 -179 -43 c -15 14 -9 268 6 305 c 17 41 58 60 126 61 c 49 0 51 -1 82 -48 z m -512 -109 c -32 -200 -27 -275 22 -346 c 31 -45 99 -103 167 -142 c 47 -27 48 -29 25 -37 c -13 -5 -52 -12 -85 -15 c -54 -5 -67 -2 -113 22 c -124 68 -201 179 -201 291 c 0 99 40 169 129 226 c 56 35 62 35 56 1 z m 165 -74 c 0 -58 34 -165 69 -221 c 33 -51 29 -58 -32 -58 c -26 0 -37 8 -57 37 c -76 113 -77 139 -17 251 c 24 44 37 40 37 -9 z m 381 -201 c 30 -12 56 -23 58 -25 c 3 -2 -11 -19 -30 -39 c -43 -46 -126 -94 -161 -94 c -31 0 -78 19 -78 31 c 0 14 132 149 145 149 c 7 0 37 -10 66 -22 z m 209 -187 c -54 -69 -167 -142 -343 -222 c -86 -39 -98 -42 -185 -43 c -88 -1 -95 1 -113 23 c -11 13 -18 28 -16 34 c 1 5 39 20 83 33 c 45 13 128 41 185 63 c 57 22 169 64 249 95 c 80 31 151 56 158 56 c 8 0 1 -16 -18 -39 z m -967 -3 c 82 -56 127 -93 127 -105 c 0 -8 -18 -33 -41 -58 c -29 -31 -62 -52 -117 -75 c -42 -18 -117 -50 -167 -73 c -74 -33 -103 -41 -167 -45 l -78 -5 l 0 44 c 0 72 8 84 81 130 c 39 24 107 71 152 103 c 85 62 156 106 170 106 c 5 0 23 -10 40 -22 z m 1067 -666 c 36 -48 66 -89 68 -92 c 5 -12 -218 -152 -270 -169 c -117 -41 -107 -45 -160 71 c -26 57 -50 110 -53 120 c -5 13 4 18 49 28 c 31 6 109 38 174 70 c 64 32 119 59 122 59 c 3 0 34 -39 70 -87 z m 233 -168 c 34 -15 37 -19 37 -58 c 0 -22 -6 -64 -14 -91 c -12 -48 -51 -145 -58 -145 c -53 0 -329 79 -363 104 c -13 9 3 23 101 81 c 64 38 134 88 157 111 c 40 40 43 41 72 27 c 16 -7 47 -20 68 -29 z" stroke-linecap="round"/>
</g>
		<g transform="matrix(0.1 0 0 -0.1 96.1233 32.6755)" id="svg_8">
<path style="stroke: none; stroke-width: 1; stroke-dasharray: none; stroke-linecap: butt; stroke-dashoffset: 0; stroke-linejoin: miter; stroke-miterlimit: 4; is-custom-font: none; font-file-url: none; fill: rgb(43,41,40); fill-opacity: 0.94; fill-rule: nonzero; opacity: 1;" transform=" translate(-5961.2328, -5913.2453)" d="M 6092 7071.940673828125 c -42 -25 -52 -36 -52 -57 c 0 -15 5 -141 11 -280 c 6 -139 9 -255 7 -257 c -3 -3 -67 11 -144 31 c -136 34 -286 65 -292 59 c -2 -2 0 -27 5 -56 l 8 -53 l 120 -46 c 188 -73 225 -79 265 -44 c 13 11 21 10 49 -7 c 31 -18 32 -21 18 -42 c -30 -46 -40 -125 -31 -241 c 4 -61 6 -142 4 -181 c -11 -168 -5 -277 23 -385 c 17 -66 33 -168 42 -275 c 15 -162 32 -323 42 -374 c 11 -61 65 -131 101 -131 c 12 0 13 22 8 127 c -4 70 -9 130 -11 133 c -17 27 -53 620 -59 955 l -5 250 l -27 21 l -27 22 l 56 16 c 30 9 64 16 75 16 c 38 0 31 16 -33 80 l -65 64 l 0 234 c 0 214 -13 409 -29 439 c -4 8 -22 3 -59 -18 z" stroke-linecap="round"/>
</g>
		<g transform="matrix(0.1 0 0 -0.1 -153.75 -55.7105)" id="svg_9">
<path style="stroke: none; stroke-width: 1; stroke-dasharray: none; stroke-linecap: butt; stroke-dashoffset: 0; stroke-linejoin: miter; stroke-miterlimit: 4; is-custom-font: none; font-file-url: none; fill: rgb(43,41,40); fill-opacity: 0.94; fill-rule: nonzero; opacity: 1;" transform=" translate(-3462.5, -6797.1049)" d="M 3438 6895.940673828125 l -97 -4 l -3 -94 l -3 -94 l 63 -7 c 92 -10 143 0 169 31 c 13 14 23 35 23 45 c 0 26 -40 131 -48 128 c -4 -1 -51 -4 -104 -5 z" stroke-linecap="round"/>
</g>
		<g transform="matrix(0.1 0 0 -0.1 78.4317 18.9104)" id="svg_10">
<path style="stroke: none; stroke-width: 1; stroke-dasharray: none; stroke-linecap: butt; stroke-dashoffset: 0; stroke-linejoin: miter; stroke-miterlimit: 4; is-custom-font: none; font-file-url: none; fill: rgb(43,41,40); fill-opacity: 0.94; fill-rule: nonzero; opacity: 1;" transform=" translate(-5784.3169, -6050.8962)" d="M 5666 6161.940673828125 c -20 -24 -36 -53 -36 -67 c 0 -13 16 -55 36 -92 c 31 -61 41 -70 77 -83 c 23 -7 63 -14 89 -16 c 39 -2 52 2 72 22 c 47 47 46 144 -2 198 c -19 20 -48 35 -93 48 c -37 11 -76 22 -87 25 c -15 5 -28 -3 -56 -35 z" stroke-linecap="round"/>
</g>
		<g transform="matrix(0.1 0 0 -0.1 -329.6027 119.3059)" id="svg_11">
<path style="stroke: none; stroke-width: 1; stroke-dasharray: none; stroke-linecap: butt; stroke-dashoffset: 0; stroke-linejoin: miter; stroke-miterlimit: 4; is-custom-font: none; font-file-url: none; fill: rgb(43,41,40); fill-opacity: 0.94; fill-rule: nonzero; opacity: 1;" transform=" translate(-1703.9734, -5046.9407)" d="M 1679 5895.940673828125 c -59 -61 -136 -175 -334 -488 c -87 -137 -195 -306 -241 -375 c -45 -69 -115 -190 -155 -269 l -71 -144 l 12 -76 c 18 -105 48 -167 111 -230 c 104 -103 214 -150 374 -158 l 110 -6 l 57 69 c 31 38 84 96 118 129 c 50 49 72 82 117 174 c 73 151 131 236 264 383 c 102 113 281 335 324 401 c 9 15 21 27 26 27 c 5 0 33 -16 63 -35 c 30 -19 60 -35 66 -35 c 25 0 0 140 -43 233 c -14 31 -43 79 -65 109 c -112 151 -208 226 -321 252 c -71 16 -232 21 -290 10 c -29 -6 -32 -10 -26 -33 c 8 -31 43 -71 62 -71 c 7 0 13 -4 13 -10 c 0 -18 -161 -249 -300 -430 c -161 -208 -208 -277 -270 -400 c -23 -47 -58 -108 -75 -136 l -33 -51 l -53 5 c -30 2 -55 5 -56 6 c -10 8 39 121 80 185 c 29 44 104 163 169 263 c 213 334 303 471 345 526 c 53 68 75 126 71 181 l -3 42 l -46 -48 z m 457 -176 c 27 -14 60 -37 74 -52 l 25 -27 l -60 -51 c -122 -105 -221 -206 -373 -382 c -182 -211 -238 -288 -299 -410 c -25 -49 -47 -92 -49 -94 c -2 -2 -39 7 -83 19 l -80 23 l 40 79 c 21 43 56 104 76 135 c 45 73 297 429 383 544 c 36 48 85 124 109 169 l 44 83 l 72 -6 c 49 -3 88 -13 121 -30 z m 176 -161 c 37 -26 79 -96 69 -115 c -5 -9 -72 -81 -148 -161 c -76 -80 -173 -188 -216 -240 c -42 -52 -104 -126 -137 -165 c -53 -60 -174 -232 -183 -259 c -3 -8 -122 68 -132 85 c -10 14 86 186 151 272 c 37 48 130 161 207 250 c 77 89 177 208 224 264 c 81 97 85 101 113 93 c 16 -5 39 -15 52 -24 z m -999 -945 c 117 -30 237 -101 237 -139 c 0 -100 -101 -202 -199 -202 c -48 0 -146 40 -222 91 c -63 43 -110 100 -136 167 c -18 49 -13 69 28 89 c 38 20 204 16 292 -6 z" stroke-linecap="round"/>
</g>
		<g transform="matrix(0.1 0 0 -0.1 -149.9503 48.0514)" id="svg_12">
<path style="stroke: none; stroke-width: 1; stroke-dasharray: none; stroke-linecap: butt; stroke-dashoffset: 0; stroke-linejoin: miter; stroke-miterlimit: 4; is-custom-font: none; font-file-url: none; fill: rgb(43,41,40); fill-opacity: 0.94; fill-rule: nonzero; opacity: 1;" transform=" translate(-3500.4971, -5759.4858)" d="M 3443 5894.940673828125 c -41 -3 -43 -5 -43 -35 c 0 -23 11 -42 42 -74 l 42 -43 l -51 0 l -52 0 l 15 -37 c 23 -58 57 -83 110 -83 c 50 0 98 20 108 45 c 11 29 6 105 -8 133 c -19 36 -76 88 -101 93 c -11 2 -39 3 -62 1 z" stroke-linecap="round"/>
</g>
		<g transform="matrix(0.1 0 0 -0.1 402.6019 165.715)" id="svg_13">
<path style="stroke: none; stroke-width: 1; stroke-dasharray: none; stroke-linecap: butt; stroke-dashoffset: 0; stroke-linejoin: miter; stroke-miterlimit: 4; is-custom-font: none; font-file-url: none; fill: rgb(43,41,40); fill-opacity: 0.94; fill-rule: nonzero; opacity: 1;" transform=" translate(-9026.0195, -4582.85)" d="M 8615 5722.940673828125 c -175 -9 -240 -20 -313 -57 c -76 -38 -127 -99 -185 -222 c -54 -112 -64 -173 -39 -233 c 11 -26 15 -28 74 -28 c 35 0 79 -4 98 -10 c 19 -5 46 -11 60 -14 c 14 -2 52 -12 85 -21 c 33 -8 106 -25 163 -36 c 57 -11 120 -29 140 -41 c 145 -80 229 -137 311 -210 c 51 -46 108 -94 125 -107 c 65 -50 132 -159 170 -276 c 22 -67 26 -98 26 -200 c 0 -129 -13 -189 -54 -260 c -32 -53 -94 -109 -139 -126 c -36 -13 -47 -31 -47 -80 c 0 -26 2 -26 80 -32 c 73 -5 88 -10 187 -63 c 59 -31 130 -72 157 -90 c 28 -19 52 -32 54 -30 c 2 2 0 32 -4 67 c -9 76 -27 97 -134 153 c -80 42 -79 39 -43 134 l 16 44 l 45 -7 c 107 -16 220 -90 265 -174 c 43 -79 35 -115 -53 -221 c -51 -63 -90 -122 -90 -139 c 0 -10 9 -12 41 -7 c 107 17 201 129 278 331 c 15 40 24 51 49 57 c 27 7 30 12 36 60 c 13 123 18 517 7 618 c -6 58 -15 151 -21 208 c -10 107 -24 149 -103 319 c -26 58 -51 97 -67 106 c -14 9 -92 77 -174 152 c -83 74 -173 149 -200 164 c -28 16 -100 45 -161 66 c -124 42 -165 62 -285 134 c -76 47 -167 84 -194 79 c -6 -1 -78 -5 -161 -8 z m -95 -165 c -41 -59 -96 -175 -111 -234 l -12 -49 l -67 -6 c -36 -4 -87 -13 -113 -21 c -26 -8 -47 -11 -47 -7 c 0 36 91 313 116 354 c 3 4 64 8 135 8 l 130 0 l -31 -45 z m 372 -6 c 34 -11 83 -31 110 -45 l 49 -25 l -73 -78 c -40 -43 -98 -119 -128 -168 l -55 -90 l -45 22 c -60 29 -145 62 -197 75 c -48 12 -48 12 -28 98 c 20 85 55 151 104 195 c 40 36 43 37 121 37 c 55 0 100 -7 142 -21 z m 403 -174 c 63 -21 68 -26 60 -58 c -5 -19 -21 -34 -53 -49 c -46 -23 -190 -156 -250 -233 l -32 -39 l -45 44 c -37 37 -45 50 -45 82 c 0 85 71 202 162 268 c 37 27 39 27 95 15 c 32 -7 81 -20 108 -30 z m 260 -186 c 47 -45 85 -85 85 -88 c 0 -3 -28 -24 -61 -45 c -82 -53 -170 -143 -205 -210 c -34 -65 -46 -68 -118 -28 c -62 34 -106 88 -112 138 c -5 35 -1 44 43 93 c 43 49 256 219 276 221 c 4 0 46 -37 92 -81 z m 176 -216 c 64 -67 90 -115 92 -169 c 2 -46 2 -46 -43 -61 c -25 -8 -94 -51 -155 -94 c -93 -67 -150 -96 -205 -103 c -3 -1 -12 26 -21 59 c -19 70 -14 89 49 182 c 37 54 214 233 230 233 c 4 0 28 -21 53 -47 z m 116 -379 c 15 -75 43 -267 43 -300 c 0 -25 -2 -26 -42 -20 c -155 21 -179 20 -265 -17 l -82 -35 l -11 50 c -29 118 -10 161 113 253 c 75 57 207 135 222 131 c 5 -1 15 -29 22 -62 z m -37 -425 l 43 -51 l -6 -82 c -6 -84 -33 -173 -65 -214 l -18 -24 l -33 66 c -40 81 -121 157 -203 188 c -41 16 -58 28 -58 41 c 0 39 20 54 107 81 c 48 16 99 32 113 36 c 56 19 75 12 120 -41 z" stroke-linecap="round"/>
</g>
		<g transform="matrix(0.1 0 0 -0.1 -207.7521 171.557)" id="svg_14">
<path style="stroke: none; stroke-width: 1; stroke-dasharray: none; stroke-linecap: butt; stroke-dashoffset: 0; stroke-linejoin: miter; stroke-miterlimit: 4; is-custom-font: none; font-file-url: none; fill: rgb(43,41,40); fill-opacity: 0.94; fill-rule: nonzero; opacity: 1;" transform=" translate(-2922.4792, -4524.4297)" d="M 2850 5042.940673828125 c -25 -5 -64 -11 -86 -14 c -23 -4 -61 -12 -85 -19 l -44 -13 l -7 -68 c -9 -89 -32 -158 -71 -215 c -27 -39 -33 -58 -37 -121 l -5 -75 l -45 -22 c -25 -12 -48 -22 -52 -23 c -5 0 -8 47 -8 105 l 0 105 l 29 0 c 16 0 43 3 60 6 c 37 8 41 33 11 81 c -23 38 -53 59 -100 68 c -19 4 -40 12 -47 17 c -13 10 -24 -21 -49 -142 c -23 -106 -28 -184 -15 -223 c 7 -20 32 -57 56 -82 c 50 -51 69 -54 168 -31 l 57 14 l 0 -30 c 0 -23 -12 -44 -50 -84 c -27 -29 -50 -60 -50 -68 c 0 -17 101 -92 177 -130 c 60 -30 116 -49 188 -65 c 89 -19 99 -17 153 19 l 51 35 l 1 108 c 0 60 4 107 9 107 c 14 0 55 -59 71 -100 c 40 -107 76 -157 124 -174 c 29 -10 95 12 179 61 c 64 37 83 54 99 89 l 21 42 l -46 52 c -55 61 -107 149 -107 180 c 0 15 19 41 55 74 c 74 68 95 102 95 153 c 0 35 -7 51 -43 94 c -23 29 -71 73 -107 97 c -73 50 -94 51 -191 8 c -30 -13 -67 -26 -84 -30 c -28 -6 -31 -4 -43 36 c -21 70 -61 145 -85 160 c -30 20 -92 27 -147 18 z m 158 -300 c 68 -32 138 -98 196 -184 c 61 -91 27 -146 -114 -182 c -70 -18 -143 -15 -260 10 c -159 34 -172 42 -210 143 c -25 67 -17 103 33 151 c 97 94 236 118 355 62 z m 322 -7 c 82 -33 93 -78 29 -118 c -73 -46 -62 -58 -115 128 c -5 15 -1 17 23 11 c 15 -4 44 -13 63 -21 z m -39 -408 c 40 -14 48 -22 73 -73 l 28 -57 l -33 -28 c -60 -50 -67 -51 -89 -15 c -17 28 -50 146 -50 177 c 0 15 19 14 71 -4 z m -351 -85 c 0 -41 -25 -99 -46 -107 c -17 -6 -63 3 -191 40 c -77 21 -77 21 -57 85 c 2 9 41 12 149 12 l 145 0 l 0 -30 z" stroke-linecap="round"/>
</g>
		<g transform="matrix(0.1 0 0 -0.1 -207.4312 165.1875)" id="svg_15">
<path style="stroke: none; stroke-width: 1; stroke-dasharray: none; stroke-linecap: butt; stroke-dashoffset: 0; stroke-linejoin: miter; stroke-miterlimit: 4; is-custom-font: none; font-file-url: none; fill: rgb(43,41,40); fill-opacity: 0.94; fill-rule: nonzero; opacity: 1;" transform=" translate(-2925.6883, -4588.1247)" d="M 2835 4670.940673828125 c -14 -13 -34 -47 -45 -75 l -20 -53 l 53 -30 c 28 -16 61 -30 73 -30 c 27 0 131 36 161 55 c 35 23 32 76 -7 109 c -60 50 -171 62 -215 24 z" stroke-linecap="round"/>
</g>
		<g transform="matrix(0.1 0 0 -0.1 89.4338 139.4473)" id="svg_16">
<path style="stroke: none; stroke-width: 1; stroke-dasharray: none; stroke-linecap: butt; stroke-dashoffset: 0; stroke-linejoin: miter; stroke-miterlimit: 4; is-custom-font: none; font-file-url: none; fill: rgb(43,41,40); fill-opacity: 0.94; fill-rule: nonzero; opacity: 1;" transform=" translate(-5894.3374, -4845.5272)" d="M 5850 5003.940673828125 c -51 -11 -79 -28 -100 -64 c -42 -68 -15 -158 60 -200 c 89 -49 107 -57 137 -57 c 24 0 38 8 56 33 c 48 63 58 94 55 164 c -3 66 -4 68 -43 94 c -43 30 -108 41 -165 30 z m 76 -138 l 12 -53 l -44 0 l -44 0 l 0 48 c 0 56 5 64 39 60 c 22 -3 27 -11 37 -55 z" stroke-linecap="round"/>
</g>
		<g transform="matrix(0.1 0 0 -0.1 169.1837 154.7668)" id="svg_17">
<path style="stroke: none; stroke-width: 1; stroke-dasharray: none; stroke-linecap: butt; stroke-dashoffset: 0; stroke-linejoin: miter; stroke-miterlimit: 4; is-custom-font: none; font-file-url: none; fill: rgb(43,41,40); fill-opacity: 0.94; fill-rule: nonzero; opacity: 1;" transform=" translate(-6691.8376, -4692.3315)" d="M 6883 4836.940673828125 c -70 -36 -165 -81 -210 -100 c -46 -18 -135 -61 -198 -93 c -63 -33 -119 -61 -124 -63 c -10 -3 1 -83 13 -95 c 16 -16 180 49 406 162 l 165 83 l 47 68 c 87 128 81 130 -99 38 z" stroke-linecap="round"/>
</g>
		<g transform="matrix(0.1 0 0 -0.1 298.35 189.8559)" id="svg_18">
<path style="stroke: none; stroke-width: 1; stroke-dasharray: none; stroke-linecap: butt; stroke-dashoffset: 0; stroke-linejoin: miter; stroke-miterlimit: 4; is-custom-font: none; font-file-url: none; fill: rgb(43,41,40); fill-opacity: 0.94; fill-rule: nonzero; opacity: 1;" transform=" translate(-7983.5, -4341.4407)" d="M 7619 4654.940673828125 c -115 -144 -152 -219 -152 -308 c 0 -80 35 -145 117 -221 l 61 -56 l 121 -3 c 66 -2 152 -8 190 -14 c 38 -5 103 -10 144 -10 c 57 0 99 -8 170 -31 c 52 -17 125 -33 163 -36 l 67 -6 l 0 41 c 0 37 -3 42 -27 47 c -64 14 -119 29 -137 37 c -26 14 -14 80 34 188 c 21 47 41 101 45 121 c 7 38 2 43 -88 75 l -38 13 l -20 -47 c -11 -26 -27 -60 -35 -76 c -8 -16 -14 -33 -14 -37 c 0 -23 -72 -160 -89 -169 c -19 -10 -141 -15 -141 -6 c 0 3 14 20 31 38 c 69 75 138 201 139 254 c 0 21 -58 77 -110 104 c -98 52 -194 -60 -229 -267 l -16 -98 l -80 0 l -79 0 l -34 65 c -42 81 -40 109 22 236 c 25 52 48 109 51 128 c 7 36 -2 96 -13 96 c -4 0 -28 -26 -53 -58 z m 445 -214 c -19 -64 -96 -188 -115 -188 c -10 0 -12 103 -2 139 c 4 16 23 31 57 47 c 63 29 69 30 60 2 z" stroke-linecap="round"/>
</g>
		<g transform="matrix(0.1 0 0 -0.1 97.1 423.4725)" id="svg_19">
<path style="stroke: none; stroke-width: 1; stroke-dasharray: none; stroke-linecap: butt; stroke-dashoffset: 0; stroke-linejoin: miter; stroke-miterlimit: 4; is-custom-font: none; font-file-url: none; fill: rgb(43,41,40); fill-opacity: 0.94; fill-rule: nonzero; opacity: 1;" transform=" translate(-5971, -2005.2748)" d="M 5205 4038.940673828125 c -56 -20 -91 -44 -134 -91 c -76 -83 -112 -201 -94 -305 c 8 -41 11 -45 39 -46 c 131 -4 217 -30 379 -112 c 119 -60 305 -211 466 -380 c 107 -111 130 -147 185 -287 c 15 -38 44 -103 65 -142 c 21 -40 35 -73 32 -73 c -23 0 -133 103 -311 293 c -210 222 -305 311 -417 389 c -167 116 -505 318 -533 318 c -8 0 -12 -19 -12 -60 l 0 -60 l 41 -21 c 86 -43 418 -272 533 -366 c 65 -54 155 -138 200 -187 c 45 -50 133 -142 196 -205 c 87 -88 125 -134 155 -191 c 48 -90 150 -201 211 -231 c 36 -17 55 -20 93 -15 c 62 8 145 -10 178 -39 c 26 -22 26 -24 16 -76 c -7 -30 -14 -71 -18 -91 c -3 -21 -9 -37 -13 -36 c -4 2 -41 -3 -82 -11 c -41 -7 -81 -14 -89 -14 c -8 -1 -22 -28 -33 -62 c -73 -238 -87 -265 -358 -680 c -185 -283 -253 -397 -322 -542 c -32 -67 -77 -145 -99 -173 c -40 -51 -40 -52 -30 -98 c 6 -26 13 -72 16 -102 c 14 -136 57 -212 160 -285 c 135 -97 235 -117 366 -74 c 99 33 113 43 149 111 c 35 67 257 433 292 482 c 11 15 54 87 95 160 c 41 72 92 151 114 176 c 144 166 218 272 339 490 c 29 52 62 108 73 123 l 19 28 l -34 55 c -31 52 -115 141 -182 192 l -30 23 l 13 64 c 16 79 16 245 0 311 c -14 60 -32 116 -54 167 c -15 37 -15 38 13 80 c 38 56 75 146 97 232 c 9 39 21 77 25 85 c 4 8 10 31 14 51 c 6 36 6 37 -56 76 c -138 88 -181 96 -330 64 l -88 -18 l -46 86 c -107 197 -225 344 -336 416 c -40 27 -104 78 -143 115 c -38 36 -90 82 -115 101 c -25 18 -88 69 -140 112 c -97 80 -205 141 -240 135 c -18 -3 -18 -4 -2 -39 c 11 -25 46 -58 102 -100 c 101 -76 446 -367 542 -458 c 74 -70 149 -177 228 -323 l 51 -96 l -44 -69 c -24 -37 -49 -83 -57 -101 c -7 -18 -17 -31 -22 -30 c -6 2 -29 51 -52 108 c -90 223 -118 264 -305 450 c -238 237 -321 290 -643 414 c -105 41 -164 69 -166 79 c -6 29 17 92 48 129 c 40 48 138 96 223 109 l 67 11 l 83 -53 c 441 -282 542 -360 812 -627 c 116 -115 233 -226 261 -248 c 54 -43 111 -71 121 -61 c 8 8 -69 142 -110 191 c -17 21 -61 61 -97 89 c -36 28 -155 139 -265 246 c -217 212 -181 186 -580 423 l -170 101 l -115 2 c -63 1 -128 -3 -145 -9 z m 1576 -1206 c 15 -8 19 -21 19 -59 c 0 -92 -57 -208 -145 -296 c -62 -62 -83 -60 -137 12 l -43 57 l -5 -93 l -5 -92 l -37 -21 c -36 -21 -36 -21 -70 -1 l -33 19 l -3 103 c -3 130 14 196 65 247 c 46 46 126 97 183 117 c 51 18 182 22 211 7 z m -56 -547 c 10 -26 19 -393 10 -393 c -14 0 -100 59 -126 86 c -23 24 -24 32 -27 175 l -3 149 l 69 0 c 57 0 71 -3 77 -17 z m -224 -386 c 128 -44 245 -132 351 -265 l 58 -73 l -27 -52 c -15 -29 -45 -98 -68 -154 c -38 -94 -49 -110 -139 -208 c -54 -58 -100 -104 -103 -101 c -8 8 37 85 122 213 c 83 122 115 194 115 258 c 0 29 -15 55 -31 55 c -4 0 -23 -33 -43 -72 c -37 -78 -48 -94 -246 -378 c -219 -314 -255 -370 -340 -530 c -45 -85 -86 -159 -90 -164 c -5 -5 -37 15 -72 45 c -35 30 -65 55 -68 57 c -6 5 25 61 165 297 c 159 267 228 393 278 509 c 69 158 107 278 107 341 c 0 52 -24 135 -39 135 c -4 0 -15 -44 -25 -97 c -34 -179 -107 -358 -248 -605 c -57 -98 -102 -172 -275 -450 l -54 -87 l -40 14 c -45 16 -140 62 -152 74 c -5 5 39 80 96 167 c 185 281 470 767 509 864 c 14 36 31 97 37 135 c 7 39 14 76 16 83 c 7 21 131 14 206 -11 z m -738 -1464 c 24 -43 66 -120 93 -170 c 27 -51 51 -93 55 -93 c 3 0 16 11 29 25 c 23 25 23 25 9 110 c -9 47 -12 85 -8 85 c 4 0 23 -27 43 -61 c 32 -54 36 -67 35 -127 c -1 -37 -4 -80 -8 -95 l -6 -29 l -27 22 l -28 21 l -10 -26 c -5 -14 -10 -33 -10 -41 c 0 -20 -28 -18 -109 10 c -88 30 -145 63 -193 113 c -31 32 -39 49 -48 105 c -11 72 -4 169 14 193 c 6 8 36 19 66 24 c 30 5 56 9 57 10 c 1 0 21 -34 46 -76 z" stroke-linecap="round"/>
</g>
		<g transform="matrix(0.1 0 0 -0.1 -198.1111 270.2691)" id="svg_20">
<path style="stroke: none; stroke-width: 1; stroke-dasharray: none; stroke-linecap: butt; stroke-dashoffset: 0; stroke-linejoin: miter; stroke-miterlimit: 4; is-custom-font: none; font-file-url: none; fill: rgb(43,41,40); fill-opacity: 0.94; fill-rule: nonzero; opacity: 1;" transform=" translate(-3018.8889, -3537.3092)" d="M 3260 3847.940673828125 c -47 -7 -119 -20 -160 -30 c -112 -25 -420 -44 -726 -45 l -272 0 l -20 -42 c -33 -74 -45 -148 -46 -293 l -1 -140 l 55 -3 l 55 -3 l -3 181 l -2 180 l 207 0 c 115 1 269 5 343 11 c 74 5 176 12 225 14 c 50 3 115 10 145 15 c 30 5 73 12 95 15 c 22 4 56 10 75 15 c 86 21 297 33 429 24 l 135 -9 l 12 -55 c 7 -30 13 -96 14 -147 l 0 -91 l -67 -6 c -38 -4 -129 -13 -203 -21 c -74 -8 -189 -19 -255 -25 c -66 -7 -151 -16 -190 -22 c -38 -5 -176 -11 -305 -13 c -286 -5 -407 -18 -537 -57 c -30 -9 -33 -13 -33 -49 l 0 -39 l 78 0 c 42 0 133 7 202 15 c 72 8 231 15 375 16 c 158 1 278 6 325 15 c 41 7 127 13 191 14 c 99 0 301 20 349 35 c 29 9 185 35 211 35 c 44 0 50 17 33 100 c -22 108 -37 150 -104 286 c -58 119 -60 121 -97 127 c -65 11 -444 5 -533 -8 z" stroke-linecap="round"/>
</g>
		<g transform="matrix(0.1 0 0 -0.1 289.85 318.3494)" id="svg_21">
<path style="stroke: none; stroke-width: 1; stroke-dasharray: none; stroke-linecap: butt; stroke-dashoffset: 0; stroke-linejoin: miter; stroke-miterlimit: 4; is-custom-font: none; font-file-url: none; fill: rgb(43,41,40); fill-opacity: 0.94; fill-rule: nonzero; opacity: 1;" transform=" translate(-7898.5, -3056.5061)" d="M 7570 3727.940673828125 c -74 -17 -130 -38 -201 -77 c -78 -41 -109 -78 -109 -128 c 0 -44 25 -149 39 -163 c 14 -14 149 -47 219 -54 c 59 -6 75 -14 52 -28 c -5 -3 -51 -56 -101 -118 l -91 -112 l 6 -95 c 10 -154 14 -167 48 -174 c 52 -10 151 -6 205 8 c 52 14 53 14 42 -7 c -7 -11 -18 -46 -25 -76 c -26 -110 -14 -181 41 -231 c 24 -22 35 -25 104 -25 c 73 0 80 2 151 45 c 112 67 121 71 170 84 c 52 14 58 29 62 158 c 3 64 0 81 -18 104 c -11 15 -24 29 -30 31 c -5 1 -24 -21 -42 -50 c -64 -102 -193 -217 -270 -241 c -28 -9 -72 17 -72 43 c 0 10 20 65 43 122 c 24 57 49 126 56 153 c 11 45 10 51 -7 69 c -18 18 -23 18 -73 4 c -30 -8 -85 -26 -124 -41 c -38 -15 -86 -29 -107 -32 l -36 -6 l 5 44 c 10 79 41 128 160 257 c 53 57 75 102 71 144 c -3 28 -10 35 -66 63 c -42 21 -86 34 -130 38 c -129 13 -130 13 -134 58 l -4 39 l 86 44 c 55 27 107 46 142 50 c 80 10 187 -11 277 -53 c 60 -29 88 -37 131 -36 c 30 0 65 6 77 12 c 18 10 29 5 84 -39 c 35 -28 92 -69 126 -91 c 35 -23 63 -47 63 -55 c 0 -8 -34 -83 -75 -168 c -41 -84 -75 -156 -75 -160 c 0 -4 15 -46 34 -94 c 41 -102 46 -122 53 -224 c 6 -82 -8 -158 -35 -189 c -21 -25 -66 -22 -100 7 l -29 24 l -29 -32 c -16 -18 -38 -42 -48 -54 l -19 -23 l 54 -23 c 30 -13 78 -32 108 -42 l 53 -17 l 84 83 l 84 84 l 0 135 c 0 74 -5 164 -10 200 c -5 36 -12 84 -15 108 c -3 24 -8 54 -11 66 c -4 17 12 53 59 132 l 64 109 l -8 70 l -8 70 l -108 103 c -61 58 -127 112 -151 123 c -66 29 -141 35 -203 15 c -61 -20 -74 -18 -192 35 c -79 35 -94 39 -165 38 c -42 -1 -102 -7 -132 -14 z" stroke-linecap="round"/>
</g>
		<g transform="matrix(0.1 0 0 -0.1 -133.4819 348.2175)" id="svg_22">
<path style="stroke: none; stroke-width: 1; stroke-dasharray: none; stroke-linecap: butt; stroke-dashoffset: 0; stroke-linejoin: miter; stroke-miterlimit: 4; is-custom-font: none; font-file-url: none; fill: rgb(43,41,40); fill-opacity: 0.94; fill-rule: nonzero; opacity: 1;" transform=" translate(-3665.1813, -2757.825)" d="M 3670 2958.940673828125 c -6 -28 -14 -75 -17 -104 l -6 -53 l -143 -70 c -152 -73 -170 -89 -208 -180 l -15 -37 l 31 -6 c 80 -16 306 16 375 52 c 16 9 32 7 80 -12 c 128 -50 206 -56 260 -21 c 24 16 24 18 21 148 c -3 119 -6 137 -30 187 c -46 94 -59 104 -144 110 c -41 3 -74 4 -74 2 c 0 -2 27 -38 59 -80 c 63 -82 81 -127 81 -205 l 0 -49 l -32 7 c -27 6 -136 50 -146 59 c -1 2 5 22 13 46 c 17 48 21 215 5 225 c -5 3 -29 12 -54 19 l -45 14 l -11 -52 z" stroke-linecap="round"/>
</g>
		<g transform="matrix(0.1 0 0 -0.1 -18.1179 416.7316)" id="svg_23">
<path style="stroke: none; stroke-width: 1; stroke-dasharray: none; stroke-linecap: butt; stroke-dashoffset: 0; stroke-linejoin: miter; stroke-miterlimit: 4; is-custom-font: none; font-file-url: none; fill: rgb(43,41,40); fill-opacity: 0.94; fill-rule: nonzero; opacity: 1;" transform=" translate(-4818.8215, -2072.6833)" d="M 5040 2940.940673828125 c -19 -16 -105 -83 -190 -148 c -85 -64 -180 -144 -210 -176 c -31 -33 -128 -156 -217 -274 c -89 -118 -183 -236 -210 -261 c -43 -42 -54 -47 -105 -52 c -58 -6 -97 -27 -175 -95 l -33 -28 l 0 -100 c 0 -86 20 -258 31 -268 c 16 -15 173 -86 201 -91 c 30 -6 43 -2 79 25 c 24 17 52 30 64 28 c 18 -3 20 -9 17 -62 c -5 -93 0 -103 59 -115 c 40 -9 70 -8 140 4 c 49 9 100 20 113 25 c 23 8 26 4 59 -72 l 35 -81 l 148 -2 c 89 -1 164 -7 187 -14 c 21 -7 40 -11 42 -9 c 6 6 147 303 186 393 c 79 178 125 259 217 379 c 142 186 197 265 232 335 c 31 61 32 67 22 108 c -16 57 -111 204 -153 236 c -19 14 -84 50 -144 81 c -79 39 -139 79 -209 138 c -54 46 -110 93 -124 105 l -27 21 l -35 -30 z m 267 -300 c 61 -41 132 -85 157 -98 l 46 -22 l -29 -36 c -16 -21 -68 -109 -116 -197 c -48 -88 -109 -188 -136 -222 c -56 -72 -101 -144 -184 -295 c -43 -80 -63 -108 -78 -108 c -34 0 -134 29 -257 76 c -95 35 -145 47 -237 58 l -116 13 l -39 41 c -22 24 -38 51 -38 65 c 0 25 39 83 197 293 c 50 66 126 172 169 235 c 42 63 97 139 120 170 c 40 53 46 56 95 62 c 64 8 144 46 183 86 l 28 29 l 62 -37 c 33 -21 111 -72 173 -113 z m 308 -275 c -28 -67 -118 -202 -167 -250 c -57 -56 -61 -42 -12 47 c 19 36 44 88 55 116 c 21 54 46 83 94 108 c 43 23 47 20 30 -21 z m -1477 -575 c 38 -40 81 -87 95 -104 l 26 -31 l -62 -37 c -86 -51 -123 -48 -154 14 c -19 36 -23 61 -23 131 c 0 89 0 90 41 98 c 4 0 38 -32 77 -71 z m 397 -153 c 30 -19 55 -37 55 -40 c 0 -2 -16 -34 -36 -70 l -36 -65 l -65 0 c -62 0 -65 1 -60 23 c 3 12 10 48 17 79 c 11 55 41 108 61 108 c 6 0 34 -16 64 -35 z m 408 -172 l 87 -28 l 0 -37 c 0 -32 -5 -40 -31 -54 c -69 -35 -230 -67 -242 -47 c -12 19 26 134 53 163 c 16 17 32 30 37 30 c 4 0 47 -12 96 -27 z" stroke-linecap="round"/>
</g>
		<g transform="matrix(0.1 0 0 -0.1 -379.9377 392.2559)" id="svg_24">
<path style="stroke: none; stroke-width: 1; stroke-dasharray: none; stroke-linecap: butt; stroke-dashoffset: 0; stroke-linejoin: miter; stroke-miterlimit: 4; is-custom-font: none; font-file-url: none; fill: rgb(43,41,40); fill-opacity: 0.94; fill-rule: nonzero; opacity: 1;" transform=" translate(-1200.6237, -2317.4407)" d="M 850 2917.940673828125 c -22 -24 -29 -25 -129 -25 c -171 0 -214 -21 -272 -134 c -36 -69 -46 -76 -115 -76 c -42 0 -42 0 -101 -93 c -67 -105 -77 -138 -93 -309 c -10 -117 1 -290 21 -329 c 8 -15 35 -22 144 -35 c 87 -11 313 -51 324 -59 c 13 -8 201 -34 286 -40 c 134 -9 419 -43 505 -61 c 41 -8 100 -26 130 -40 l 54 -25 l 71 35 c 49 24 101 64 175 133 c 58 54 140 126 182 161 c 86 70 147 136 152 167 c 3 11 12 58 21 105 c 9 47 21 105 25 130 c 5 25 14 74 21 110 c 8 36 14 71 14 79 c 0 14 -99 48 -230 76 c -38 9 -97 22 -130 30 c -33 7 -87 19 -120 25 c -33 7 -74 17 -92 22 c -17 5 -44 11 -59 14 c -15 3 -31 7 -34 9 c -27 17 -246 45 -541 71 c -58 5 -72 10 -114 45 c -26 21 -53 39 -59 39 c -7 0 -23 -11 -36 -25 z m -130 -154 c 0 -11 -117 -100 -171 -131 c -22 -12 -39 -17 -39 -12 c 0 5 22 32 50 61 c 59 62 160 113 160 82 z m 385 -31 c 55 -6 170 -17 255 -24 c 128 -11 182 -22 310 -59 c 219 -63 242 -69 344 -86 l 91 -16 l 3 -47 c 2 -25 -3 -68 -11 -95 l -14 -48 l -139 1 c -115 0 -150 4 -204 22 c -135 45 -194 52 -488 62 c -250 9 -375 20 -389 34 c -4 4 36 170 59 243 c 9 31 12 33 46 28 c 20 -2 82 -9 137 -15 z m -390 -157 c -15 -27 -32 -52 -36 -58 c -6 -5 0 -14 13 -22 c 21 -11 18 -12 -29 -13 c -39 0 -53 4 -53 14 c 0 8 -3 21 -6 29 c -4 11 15 27 63 56 c 37 22 70 41 71 41 c 2 0 -8 -21 -23 -47 z m -210 -239 c 9 -14 15 -27 13 -28 c -20 -16 -128 -86 -128 -83 c 0 7 39 117 45 127 c 12 20 53 10 70 -16 z m 535 -8 c 74 -8 223 -18 330 -21 c 214 -7 244 -11 438 -57 l 132 -32 l 0 -56 l 0 -55 l -66 -55 c -36 -30 -94 -79 -129 -108 c -76 -64 -130 -78 -245 -62 c -73 10 -467 44 -640 55 c -240 15 -335 43 -358 102 c -31 81 -29 89 45 166 c 38 40 76 82 84 94 c 30 44 172 54 409 29 z" stroke-linecap="round"/>
</g>
		<g transform="matrix(0.1 0 0 -0.1 415.3552 363.0467)" id="svg_25">
<path style="stroke: none; stroke-width: 1; stroke-dasharray: none; stroke-linecap: butt; stroke-dashoffset: 0; stroke-linejoin: miter; stroke-miterlimit: 4; is-custom-font: none; font-file-url: none; fill: rgb(43,41,40); fill-opacity: 0.94; fill-rule: nonzero; opacity: 1;" transform=" translate(-9153.5521, -2609.5335)" d="M 9053 2709.940673828125 l -53 -11 l 0 -45 c 0 -25 11 -71 23 -101 l 22 -55 l 68 2 c 111 3 170 44 183 128 c 3 22 8 43 11 48 c 2 4 -25 7 -61 7 l -66 0 l 0 -32 c 0 -42 -8 -53 -43 -62 c -24 -6 -28 -4 -23 11 c 3 10 7 42 10 71 c 4 38 2 52 -7 50 c -6 0 -36 -6 -64 -11 z" stroke-linecap="round"/>
</g>
		<g transform="matrix(0.1 0 0 -0.1 -246.5 411.3008)" id="svg_26">
<path style="stroke: none; stroke-width: 1; stroke-dasharray: none; stroke-linecap: butt; stroke-dashoffset: 0; stroke-linejoin: miter; stroke-miterlimit: 4; is-custom-font: none; font-file-url: none; fill: rgb(43,41,40); fill-opacity: 0.94; fill-rule: nonzero; opacity: 1;" transform=" translate(-2535, -2126.9923)" d="M 2576 2210.940673828125 c -3 -7 -10 -30 -16 -50 c -6 -21 -15 -38 -18 -38 c -4 0 -16 -3 -28 -6 c -19 -5 -22 0 -28 47 l -7 52 l -29 -28 c -30 -29 -60 -82 -60 -107 c 0 -16 61 -34 143 -44 c 53 -6 53 -6 79 33 c 25 38 68 118 68 127 c 0 2 -15 7 -32 11 c -18 4 -41 9 -51 11 c -9 3 -19 -1 -21 -8 z" stroke-linecap="round"/>
</g>
		<g transform="matrix(0.1 0 0 -0.1 331.7844 455.8149)" id="svg_27">
<path style="stroke: none; stroke-width: 1; stroke-dasharray: none; stroke-linecap: butt; stroke-dashoffset: 0; stroke-linejoin: miter; stroke-miterlimit: 4; is-custom-font: none; font-file-url: none; fill: rgb(43,41,40); fill-opacity: 0.94; fill-rule: nonzero; opacity: 1;" transform=" translate(-8317.8443, -1681.8503)" d="M 8068 1957.940673828125 c -35 -30 -35 -45 1 -79 c 28 -27 29 -28 14 -74 c -15 -47 -13 -186 2 -224 c 6 -15 2 -18 -27 -18 c -25 0 -42 8 -63 30 c -28 29 -29 31 -16 80 c 20 80 18 138 -7 163 c -21 21 -22 21 -36 2 c -28 -39 -76 -144 -87 -193 c -15 -63 -6 -108 33 -166 c 39 -60 92 -96 144 -98 c 53 -2 76 12 114 72 c 36 57 45 59 182 40 c 133 -18 352 -37 402 -35 c 59 3 67 14 69 97 c 3 94 3 94 -265 101 c -123 4 -243 11 -268 18 c -25 6 -52 12 -60 13 c -12 2 -16 26 -18 128 l -3 125 l -38 21 c -21 12 -40 22 -42 22 c -2 0 -16 -12 -31 -25 z" stroke-linecap="round"/>
</g>
		<g transform="matrix(0.1 0 0 -0.1 -224.05 470.4942)" id="svg_28">
<path style="stroke: none; stroke-width: 1; stroke-dasharray: none; stroke-linecap: butt; stroke-dashoffset: 0; stroke-linejoin: miter; stroke-miterlimit: 4; is-custom-font: none; font-file-url: none; fill: rgb(43,41,40); fill-opacity: 0.94; fill-rule: nonzero; opacity: 1;" transform=" translate(-2759.5, -1535.0575)" d="M 2662 1568.940673828125 c -17 -30 -32 -59 -32 -66 c 0 -6 25 -22 55 -36 c 48 -22 60 -24 89 -14 c 45 14 62 35 90 108 l 25 62 l -97 0 l -97 0 l -33 -54 z" stroke-linecap="round"/>
</g>
</g>
</g>
</svg>